# xmcd
# 
# Track frame offsets:
#     150
#     33190
#     61218
#     85423
#     103478
#     127640
#     151778
#     179055
#     208743
#     227223
# 
# Disc length: 3364
# 
# Revision: 2
# Processed by: cddbd v1.5.2PL0 Copyright (c) Steve Scherf et al.
# Submitted via: BonkEnc v1.0.6
# 
DISCID=820d220a
DTITLE=Yuji Ohno and Lupintic Five - LUPIN THE THIRD 「JAZZ」 the 10th 〜New Flight〜
DYEAR=2006
DGENRE=Jazz
TTITLE0=HOT SAMBA
TTITLE1=THEME FROM LUPIN III -ルパン三世のテーマ-
TTITLE2=LOVE THEME -ルパン三世 愛のテーマ-
TTITLE3=MANHATTAN JOKE
TTITLE4=LOVE SQUALL
TTITLE5=TREASURES OF TIME -炎のたからもの-
TTITLE6=ISN'T IT LUPINTIC?
TTITLE7=TORNADO
TTITLE8=ZENIGATA MARCH
TTITLE9=PARTY'S OVER
EXTD=YEAR: 2006
EXTT0=
EXTT1=
EXTT2=
EXTT3=
EXTT4=
EXTT5=
EXTT6=
EXTT7=
EXTT8=
EXTT9=
PLAYORDER=
